<?xml version="1.0" encoding="UTF-8"?>
<svg id="a" data-name="Capa 2" xmlns="http://www.w3.org/2000/svg" xmlns:xlink="http://www.w3.org/1999/xlink" viewBox="0 0 348.8 348.8">
  <defs>
    <style>
      .d {
        fill: url(#c);
      }
    </style>
    <linearGradient id="c" data-name="Degradado sin nombre 76" x1="41.13" y1="307.67" x2="307.67" y2="41.12" gradientTransform="translate(-52.12 76.85) rotate(-21.7)" gradientUnits="userSpaceOnUse">
      <stop offset="0" stop-color="#2b4d7d"/>
      <stop offset="1" stop-color="#a6cbff"/>
    </linearGradient>
  </defs>
  <g id="b" data-name="Capa 1">
    <path class="d" d="M93.36,337.05c28.18-67.05,95.06-113.66,167.85-115.59,6.51,6.93,13.55,13.44,21.09,19.46-72.62-6.99-143.49,36.57-171.56,103.6-1.5,3.59-5.67,5.23-9.24,3.69l-4.46-1.93c-3.55-1.54-5.18-5.66-3.68-9.23ZM337.05,255.44c3.57,1.5,7.69-.12,9.23-3.68l1.93-4.47c1.55-3.57-.1-7.73-3.69-9.24-67.02-28.08-110.58-98.91-103.62-171.54-6.02,7.54-12.53,14.56-19.45,21.07,1.93,72.79,48.54,139.68,115.59,167.85ZM87.58,127.34c72.79-1.93,139.67-48.55,167.85-115.59,1.5-3.57-.12-7.69-3.68-9.23l-4.46-1.93c-3.57-1.55-7.73.1-9.24,3.69-28.08,67.02-98.94,110.58-171.56,103.61,7.54,6.02,14.58,12.53,21.09,19.46ZM4.27,110.74c67.03,28.08,110.58,98.95,103.61,171.57,6.02-7.54,12.53-14.58,19.46-21.09-1.93-72.79-48.55-139.68-115.59-167.85-3.57-1.5-7.69.12-9.23,3.68l-1.93,4.46c-1.55,3.57.1,7.73,3.69,9.24ZM256.99,43.14l-1.34,13.97c47.13,32.62,70.29,91.03,58.29,147.11,3.51,2.77,7.13,5.38,10.9,7.84,16.26-64.77-11.25-133.35-67.85-168.92ZM291.7,255.64v.03c-32.61,47.08-90.86,70.22-146.89,58.32-2.79,3.48-5.46,7.1-7.94,10.85,64.73,16.21,133.25-11.29,168.79-67.84l-13.96-1.36ZM93.15,291.68h-.03c-47.12-32.66-70.28-91.01-58.27-147.08-3.51-2.77-7.13-5.38-10.9-7.84-16.24,64.74,11.27,133.3,67.84,168.88l1.36-13.96ZM43.14,91.79l13.96,1.36c32.63-47.16,91.03-70.29,147.13-58.28,2.75-3.53,5.35-7.14,7.82-10.91C147.3,7.72,78.72,35.22,43.14,91.79Z"/>
  </g>
</svg>