<?xml version="1.0" encoding="UTF-8"?>
<svg id="a" data-name="Capa 3" xmlns="http://www.w3.org/2000/svg" xmlns:xlink="http://www.w3.org/1999/xlink" viewBox="0 0 1771.47 348.8">
  <defs>
    <style>
      .d {
        fill: url(#c);
      }

      .e {
        fill: #b0ceff;
      }
    </style>
    <linearGradient id="c" data-name="Degradado sin nombre 76" x1="41.13" y1="307.67" x2="307.67" y2="41.12" gradientTransform="translate(-52.12 76.85) rotate(-21.7)" gradientUnits="userSpaceOnUse">
      <stop offset="0" stop-color="#2b4d7d"/>
      <stop offset="1" stop-color="#a6cbff"/>
    </linearGradient>
  </defs>
  <g id="b" data-name="Capa 1">
    <g>
      <path class="e" d="M427.25,244.67l57.2-147.9c1.51-3.89,5.19-6.45,9.3-6.45h20.82c4.1,0,7.79,2.56,9.3,6.45l57.2,147.9c2.59,6.69-2.25,13.93-9.3,13.93h-12.68c-4.12,0-7.82-2.58-9.31-6.49l-11.67-30.53h-67.91l-11.67,30.53c-1.5,3.91-5.19,6.49-9.31,6.49h-12.68c-7.05,0-11.88-7.24-9.3-13.93ZM480.81,192.48h46.69l-23.34-61.06-23.34,61.06Z"/>
      <path class="e" d="M606.25,248.4V100.51c0-5.63,4.47-10.19,9.99-10.19h12.32c5.52,0,9.99,4.56,9.99,10.19v147.9c0,5.63-4.47,10.19-9.99,10.19h-12.32c-5.52,0-9.99-4.56-9.99-10.19Z"/>
      <path class="e" d="M710.02,253.05V94.68c0-2.68,2.16-4.85,4.82-4.85h46.42c10.49,0,19.78,2.2,27.88,6.6,8.1,4.4,14.42,10.53,18.95,18.37,4.53,7.85,6.79,16.89,6.79,27.13s-2.03,19.05-6.08,26.89c-4.05,7.84-9.61,14.01-16.68,18.49-7.07,4.48-15.22,6.72-24.43,6.72h-42.42v59.02c0,2.68-2.16,4.85-4.82,4.85h-5.62c-2.66,0-4.82-2.17-4.82-4.85ZM725.27,179.87h42.42c9.37,0,17.08-3.52,23.12-10.57,6.04-7.04,9.06-16.17,9.06-27.37s-3.62-20.57-10.84-27.61c-7.23-7.04-16.49-10.57-27.76-10.57h-35.99v76.12Z"/>
      <path class="e" d="M874.94,258.11c-13.98,0-24.9-3.17-32.77-9.52-7.86-6.35-11.8-15.16-11.8-26.44s3.93-20.6,11.8-27.03c7.87-6.42,18.79-9.63,32.77-9.63h35.27c-.64-12.53-3.57-21.93-8.82-28.2-5.24-6.26-13.27-9.4-24.07-9.4-7.15,0-13.15,1.41-17.99,4.23-3.84,2.23-7.15,5.45-9.94,9.64-1.31,1.97-3.84,2.75-6.02,1.8l-3.82-1.67c-2.75-1.2-3.75-4.6-2.02-7.02,2.52-3.53,5.26-6.56,8.22-9.09,4.21-3.6,8.94-6.3,14.18-8.11,5.24-1.8,11.04-2.7,17.4-2.7,10.64,0,19.46,2.12,26.45,6.35,6.99,4.23,12.23,10.58,15.73,19.04,3.49,8.46,5.24,19.12,5.24,31.96v61.08c0,2.62-2.16,4.75-4.82,4.75h-3.81c-2.53,0-4.62-1.93-4.8-4.41l-.87-14.89c-3.66,6.11-8.5,10.85-14.54,14.22-6.04,3.37-13.03,5.05-20.97,5.05ZM873.98,245.19c7.63,0,14.18-1.53,19.66-4.58,5.48-3.05,9.65-7.56,12.51-13.51,2.86-5.95,4.29-13.31,4.29-22.09v-6.58h-33.6c-11.44,0-19.66,2.08-24.67,6.23-5,4.15-7.51,9.99-7.51,17.51s2.58,12.85,7.75,16.92c5.16,4.08,12.35,6.11,21.57,6.11Z"/>
      <path class="e" d="M1000.05,258.11c-10.96,0-19.54-2.87-25.74-8.62-6.2-5.74-9.29-13.89-9.29-24.44v-74.85h-16.39c-2.66,0-4.82-2.14-4.82-4.77v-3.44c0-2.64,2.16-4.77,4.82-4.77h16.39v-32.06c0-2.64,2.16-4.77,4.82-4.77h4.67c2.66,0,4.82,2.14,4.82,4.77v32.06h33.08c2.66,0,4.82,2.14,4.82,4.77v3.44c0,2.64-2.16,4.77-4.82,4.77h-33.08v74.85c0,6.3,1.82,11.21,5.48,14.76,3.65,3.54,8.74,5.31,15.25,5.31,1.91,0,3.77-.27,5.6-.83.97-.29,2.17-.84,3.6-1.64,2.43-1.35,5.51-.41,6.72,2.08l1.65,3.4c1.14,2.36.15,5.17-2.21,6.35-2.49,1.24-4.67,2.09-6.54,2.56-2.86.71-5.8,1.06-8.82,1.06Z"/>
      <path class="e" d="M1044.62,253.05V94.68c0-2.68,2.16-4.85,4.82-4.85h4.67c2.66,0,4.82,2.17,4.82,4.85v61.66c3.97-6.88,9.21-12.16,15.73-15.85,6.51-3.68,14.14-5.52,22.88-5.52,9.21,0,17.36,1.88,24.43,5.64,7.07,3.76,12.63,9.72,16.68,17.89,4.05,8.16,6,18.97,5.84,32.42v62.14c0,2.68-2.16,4.85-4.82,4.85h-4.67c-2.66,0-4.82-2.17-4.82-4.85v-56.62c0-13.28-1.55-23.37-4.65-30.25-3.1-6.88-7.31-11.56-12.63-14.05-5.32-2.48-11.32-3.72-17.99-3.72-11.28,0-20.1,4.2-26.45,12.61-6.36,8.4-9.53,20.13-9.53,35.18v56.86c0,2.68-2.16,4.85-4.82,4.85h-4.67c-2.66,0-4.82-2.17-4.82-4.85Z"/>
      <path class="e" d="M1188.56,253.15v-100.07h-17.82c-2.66,0-4.82-2.13-4.82-4.76v-3.43c0-2.63,2.16-4.76,4.82-4.76h17.82v-14.14c0-12.09,2.78-21.08,8.34-26.97,5.56-5.89,13.98-8.83,25.26-8.83,2.54,0,5.56.47,9.06,1.41,2.25.61,4.74,1.41,7.46,2.41,2.58.95,3.81,3.85,2.73,6.34l-1.46,3.35c-1,2.3-3.65,3.44-6.04,2.6-2.32-.82-4.37-1.48-6.14-1.98-2.78-.78-5.05-1.18-6.79-1.18-6.04,0-10.57,1.88-13.58,5.65-3.02,3.77-4.53,9.5-4.53,17.2v14.14h31.65c2.66,0,4.82,2.13,4.82,4.76v3.43c0,2.63-2.16,4.76-4.82,4.76h-31.65v100.07c0,2.63-2.16,4.76-4.82,4.76h-4.67c-2.66,0-4.82-2.13-4.82-4.76Z"/>
      <path class="e" d="M1270.78,109.11c-2.54,0-4.77-.96-6.67-2.88-1.91-1.92-2.86-4.16-2.86-6.72,0-2.72.95-5,2.86-6.84,1.91-1.84,4.13-2.76,6.67-2.76,2.7,0,4.96.92,6.79,2.76,1.82,1.84,2.74,4.12,2.74,6.84,0,2.56-.92,4.8-2.74,6.72-1.83,1.92-4.09,2.88-6.79,2.88ZM1263.39,253.05v-110.35c0-2.68,2.16-4.85,4.82-4.85h4.67c2.66,0,4.82,2.17,4.82,4.85v110.35c0,2.68-2.16,4.85-4.82,4.85h-4.67c-2.66,0-4.82-2.17-4.82-4.85Z"/>
      <path class="e" d="M1314.86,253.05v-110.35c0-2.68,2.16-4.85,4.82-4.85h3.89c2.59,0,4.71,2.06,4.81,4.67l.54,14.06c3.97-7.04,9.21-12.4,15.73-16.09,6.51-3.68,14.22-5.52,23.12-5.52s17.36,1.88,24.43,5.64c7.07,3.76,12.63,9.72,16.68,17.89s6,18.97,5.84,32.42v62.14c0,2.68-2.16,4.85-4.82,4.85h-4.67c-2.66,0-4.82-2.17-4.82-4.85v-56.62c0-13.28-1.55-23.37-4.65-30.25-3.1-6.88-7.31-11.56-12.63-14.05-5.32-2.48-11.32-3.72-17.99-3.72-11.28,0-20.1,4.2-26.45,12.61-6.36,8.4-9.53,20.13-9.53,35.18v56.86c0,2.68-2.16,4.85-4.82,4.85h-4.67c-2.66,0-4.82-2.17-4.82-4.85Z"/>
      <path class="e" d="M1493.6,258.25c-10.49,0-19.78-2.64-27.88-7.92-8.1-5.28-14.46-12.61-19.07-22-4.61-9.38-6.91-20.07-6.91-32.05s2.3-22.86,6.91-32.17c4.61-9.3,10.96-16.6,19.07-21.88,8.1-5.28,17.4-7.92,27.88-7.92,9.06,0,17.2,2.17,24.43,6.51,7.23,4.34,13.07,10.29,17.52,17.86v-64.05c0-2.64,2.16-4.78,4.82-4.78h4.67c2.66,0,4.82,2.14,4.82,4.78v158.87c0,2.64-2.16,4.78-4.82,4.78h-4.11c-2.6,0-4.73-2.05-4.81-4.62l-.56-19.75c-4.45,7.57-10.29,13.52-17.52,17.86-7.23,4.34-15.37,6.51-24.43,6.51ZM1496.46,245.48c7.63,0,14.38-2.09,20.26-6.27,5.88-4.18,10.49-9.97,13.82-17.39,3.34-7.41,5-15.85,5-25.31v-.24c0-9.62-1.67-18.13-5-25.55-3.34-7.41-7.95-13.21-13.82-17.39-5.88-4.18-12.71-6.27-20.5-6.27-8.26,0-15.57,2.09-21.93,6.27-6.36,4.18-11.32,9.98-14.89,17.39-3.58,7.41-5.36,15.93-5.36,25.55s1.82,18.14,5.48,25.55c3.65,7.41,8.66,13.21,15.01,17.39,6.35,4.18,13.66,6.27,21.93,6.27Z"/>
      <path class="e" d="M1637.06,258.11c-11.44,0-21.57-2.63-30.39-7.87-8.82-5.25-15.73-12.49-20.73-21.74-5.01-9.24-7.51-19.89-7.51-31.96s2.46-22.71,7.39-31.96c4.92-9.24,11.72-16.49,20.38-21.74,8.66-5.25,18.55-7.87,29.67-7.87s20.85,2.7,28.72,8.11c7.86,5.41,13.86,12.85,17.99,22.33,4.13,9.48,6.2,20.41,6.2,32.78h-96.28c.79,14.89,5.2,26.44,13.23,34.66,8.02,8.23,18.47,12.34,31.34,12.34,9.21,0,17.04-2.23,23.47-6.7,5.13-3.56,9.38-7.95,12.74-13.15,1.43-2.21,4.37-2.91,6.63-1.53l3.74,2.29c2.27,1.39,2.96,4.33,1.55,6.57-2.62,4.12-5.75,7.87-9.4,11.24-4.85,4.46-10.53,7.95-17.04,10.46-6.52,2.5-13.74,3.76-21.69,3.76ZM1593.93,185.26h79.36c-.48-7.52-2.3-14.06-5.48-19.62-3.18-5.56-7.47-9.91-12.87-13.04-5.4-3.13-11.76-4.7-19.07-4.7s-13.82,1.57-20.02,4.7c-6.2,3.14-11.24,7.52-15.13,13.16-3.9,5.64-6.16,12.14-6.79,19.51Z"/>
      <path class="e" d="M1714.99,253.05v-110.35c0-2.68,2.16-4.85,4.82-4.85h4.67c2.66,0,4.82,2.17,4.82,4.85v16.28c4.61-7.52,10.72-13,18.35-16.45,6.02-2.72,12.24-4.36,18.66-4.93,2.79-.25,5.18,2.02,5.18,4.84v3.47c0,2.54-1.95,4.64-4.46,4.83-5.4.42-10.62,1.6-15.68,3.55-6.43,2.48-11.72,6.64-15.85,12.49-4.13,5.85-6.2,13.81-6.2,23.89v62.38c0,2.68-2.16,4.85-4.82,4.85h-4.67c-2.66,0-4.82-2.17-4.82-4.85Z"/>
      <path class="d" d="M93.36,337.05c28.18-67.05,95.06-113.66,167.85-115.59,6.51,6.93,13.55,13.44,21.09,19.46-72.62-6.99-143.49,36.57-171.56,103.6-1.5,3.59-5.67,5.23-9.24,3.69l-4.46-1.93c-3.55-1.54-5.18-5.66-3.68-9.23ZM337.05,255.44c3.57,1.5,7.69-.12,9.23-3.68l1.93-4.47c1.55-3.57-.1-7.73-3.69-9.24-67.02-28.08-110.58-98.91-103.62-171.54-6.02,7.54-12.53,14.56-19.45,21.07,1.93,72.79,48.54,139.68,115.59,167.85ZM87.58,127.34c72.79-1.93,139.67-48.55,167.85-115.59,1.5-3.57-.12-7.69-3.68-9.23l-4.46-1.93c-3.57-1.55-7.73.1-9.24,3.69-28.08,67.02-98.94,110.58-171.56,103.61,7.54,6.02,14.58,12.53,21.09,19.46ZM4.27,110.74c67.03,28.08,110.58,98.95,103.61,171.57,6.02-7.54,12.53-14.58,19.46-21.09-1.93-72.79-48.55-139.68-115.59-167.85-3.57-1.5-7.69.12-9.23,3.68l-1.93,4.46c-1.55,3.57.1,7.73,3.69,9.24ZM256.99,43.14l-1.34,13.97c47.13,32.62,70.29,91.03,58.29,147.11,3.51,2.77,7.13,5.38,10.9,7.84,16.26-64.77-11.25-133.35-67.85-168.92ZM291.7,255.64v.03c-32.61,47.08-90.86,70.22-146.89,58.32-2.79,3.48-5.46,7.1-7.94,10.85,64.73,16.21,133.25-11.29,168.79-67.84l-13.96-1.36ZM93.15,291.68h-.03c-47.12-32.66-70.28-91.01-58.27-147.08-3.51-2.77-7.13-5.38-10.9-7.84-16.24,64.74,11.27,133.3,67.84,168.88l1.36-13.96ZM43.14,91.79l13.96,1.36c32.63-47.16,91.03-70.29,147.13-58.28,2.75-3.53,5.35-7.14,7.82-10.91C147.3,7.72,78.72,35.22,43.14,91.79Z"/>
    </g>
  </g>
</svg>