<svg width="22" height="22" viewBox="0 0 22 22" fill="none" xmlns="http://www.w3.org/2000/svg">
<path d="M5.88831 21.2596C7.6658 17.0303 11.8843 14.0903 16.4756 13.9685C16.8863 14.4057 17.3303 14.8163 17.8059 15.196C13.2253 14.7551 8.75512 17.5027 6.98457 21.7308C6.88996 21.9572 6.62693 22.0607 6.40175 21.9635L6.12043 21.8418C5.89651 21.7447 5.7937 21.4848 5.88831 21.2596ZM21.2593 16.1119C21.4845 16.2065 21.7444 16.1043 21.8415 15.8798L21.9633 15.5978C22.061 15.3726 21.957 15.1102 21.7305 15.015C17.5032 13.2438 14.7556 8.77604 15.1946 4.19477C14.8148 4.67037 14.4042 5.11317 13.9677 5.5238C14.0895 10.1152 17.0294 14.3344 21.2587 16.1113L21.2593 16.1119ZM5.52373 8.03173C10.115 7.91 14.3336 4.96935 16.1111 0.740674C16.2057 0.51549 16.1035 0.255613 15.8789 0.158475L15.5976 0.0367361C15.3724 -0.0610331 15.11 0.0430439 15.0148 0.26949C13.2436 4.4969 8.77404 7.24453 4.19345 6.80489C4.66905 7.18461 5.1131 7.59524 5.52373 8.03237V8.03173ZM0.268856 6.98466C4.49685 8.75586 7.24382 13.2261 6.80418 17.8068C7.18389 17.3312 7.59452 16.8871 8.03164 16.4765C7.9099 11.8851 4.96929 7.66589 0.740665 5.88901C0.515484 5.7944 0.25561 5.89658 0.158473 6.12114L0.0367357 6.40246C-0.0610323 6.62764 0.0430433 6.89004 0.269487 6.98529L0.268856 6.98466ZM16.2095 2.72066L16.1249 3.60184C19.0977 5.65941 20.5586 9.34373 19.8016 12.8811C20.023 13.0558 20.2514 13.2204 20.4892 13.3756C21.5148 9.29012 19.7796 4.9643 16.2095 2.72066ZM18.3988 16.1245V16.1264C16.3419 19.0961 12.6677 20.5557 9.13358 19.805C8.95759 20.0245 8.78918 20.2529 8.63275 20.4894C12.7157 21.5119 17.0376 19.7773 19.2794 16.2103L18.3988 16.1245ZM5.87506 18.3978H5.87317C2.90102 16.3377 1.44018 12.6572 2.19772 9.12044C1.97633 8.94572 1.74799 8.78109 1.51019 8.62592C0.485838 12.7095 2.22106 17.0341 5.78928 19.2783L5.87506 18.3978ZM2.72063 5.78935L3.60117 5.87514C5.65934 2.90043 9.34299 1.44146 12.8816 2.19901C13.055 1.97635 13.219 1.74864 13.3748 1.51084C9.29064 0.486475 4.96487 2.22109 2.72063 5.78935Z" fill="#B0CEFF"/>
</svg>
