<svg xmlns="http://www.w3.org/2000/svg" width="18" height="19" viewBox="0 0 18 19" fill="none">
  <path fill-rule="evenodd" clip-rule="evenodd" d="M4.29098 2.08412C4.29098 3.22031 3.439 4.1398 2.10665 4.1398C0.826209 4.1398 -0.0257717 3.22031 0.000595157 2.08412C-0.0257717 0.892716 0.826188 0 2.13217 0C3.43898 0 4.26544 0.892716 4.29098 2.08412ZM0.107715 18.9981V5.76376H4.15832V18.9972H0.107715V18.9981Z" fill="#08132D"/>
  <path fill-rule="evenodd" clip-rule="evenodd" d="M5.63397 9.98756C5.63397 8.33683 5.58041 6.92956 5.52686 5.76576H9.04518L9.23221 7.57881H9.31215C9.84525 6.73964 11.1776 5.46875 13.3364 5.46875C16.0011 5.46875 18 7.25502 18 11.1505V19.0001H13.9494V11.6659C13.9494 9.95995 13.3636 8.79699 11.8978 8.79699C10.778 8.79699 10.1122 9.58178 9.84609 10.339C9.73897 10.61 9.68624 10.9882 9.68624 11.3681V19.0001H5.63561V9.98756H5.63397Z" fill="#08132D"/>
</svg>