<?xml version="1.0" encoding="UTF-8"?>
<svg id="a" data-name="Capa 2" xmlns="http://www.w3.org/2000/svg" xmlns:xlink="http://www.w3.org/1999/xlink" viewBox="0 0 1972.45 328.66">
  <defs>
    <style>
      .d {
        fill: url(#c);
      }

      .e {
        fill: #b7cfff;
      }
    </style>
    <linearGradient id="c" data-name="Degradado sin nombre 76" x1="164.33" y1="328.66" x2="164.33" y2="0" gradientUnits="userSpaceOnUse">
      <stop offset="0" stop-color="#334d79"/>
      <stop offset="1" stop-color="#aeccfd"/>
    </linearGradient>
  </defs>
  <g id="b" data-name="Capa 1">
    <g>
      <path class="d" d="M155.14,209.38c-10.01,15.55-17.68,32.73-22.51,51.06-20.36-49.54-67.49-74.29-118.59-74.19-7.78.01-14.04-6.39-14.04-14.17v-16.58c0-7.77,6.26-14.14,14.03-14.18,55.35-.3,108.84,22.55,141.11,68.06ZM314.63,187.35c7.77-.04,14.03-6.41,14.03-14.18v-16.58c0-7.78-6.27-14.19-14.04-14.17-51.1.09-98.23-24.66-118.59-74.19-4.83,18.33-12.5,35.51-22.51,51.06,32.27,45.51,85.75,68.36,141.11,68.06ZM141.31,314.63c.04,7.77,6.41,14.03,14.18,14.03h16.58c7.78,0,14.19-6.27,14.17-14.04-.09-51.1,24.66-98.23,74.19-118.59-18.33-4.83-35.51-12.5-51.06-22.51-45.51,32.27-68.36,85.75-68.06,141.11ZM187.35,14.03C187.3,6.26,180.94,0,173.17,0h-16.58c-7.78,0-14.19,6.27-14.17,14.04.09,51.1-24.66,98.23-74.19,118.59,18.33,4.83,35.51,12.5,51.06,22.51,45.51-32.27,68.36-85.75,68.06-141.11Z"/>
      <g>
        <path class="e" d="M411.5,244.89l66.42-169.12c1.75-4.45,6.03-7.38,10.8-7.38h24.18c4.77,0,9.05,2.93,10.8,7.38l66.42,169.12c3,7.64-2.61,15.92-10.8,15.92h-14.72c-4.78,0-9.08-2.95-10.81-7.42l-13.55-34.91h-78.86l-13.55,34.91c-1.74,4.47-6.03,7.42-10.81,7.42h-14.72c-8.19,0-13.8-8.28-10.8-15.92ZM473.7,185.22h54.21l-27.11-69.82-27.11,69.82Z"/>
        <path class="e" d="M619.36,249.16V80.04c0-6.43,5.2-11.65,11.6-11.65h14.3c6.41,0,11.6,5.22,11.6,11.65v169.12c0,6.43-5.2,11.65-11.6,11.65h-14.3c-6.41,0-11.6-5.22-11.6-11.65Z"/>
        <path class="e" d="M739.86,254.48V73.38c0-3.06,2.5-5.55,5.59-5.55h53.91c12.18,0,22.97,2.52,32.38,7.55,9.41,5.04,16.74,12.04,22,21,5.26,8.97,7.89,19.31,7.89,31.03s-2.35,21.79-7.06,30.75c-4.7,8.97-11.16,16.02-19.37,21.14-8.21,5.13-17.67,7.69-28.37,7.69h-49.26v67.49c0,3.06-2.5,5.55-5.59,5.55h-6.52c-3.09,0-5.59-2.48-5.59-5.55ZM757.57,170.8h49.26c10.88,0,19.83-4.02,26.84-12.08,7.01-8.05,10.52-18.49,10.52-31.3s-4.2-23.52-12.59-31.58c-8.4-8.05-19.14-12.08-32.24-12.08h-41.79v87.04Z"/>
        <path class="e" d="M931.36,260.27c-16.24,0-28.92-3.63-38.05-10.88-9.13-7.26-13.7-17.33-13.7-30.23s4.57-23.56,13.7-30.9c9.13-7.34,21.82-11.02,38.05-11.02h40.96c-.74-14.33-4.15-25.08-10.24-32.25-6.09-7.16-15.41-10.75-27.95-10.75-8.3,0-15.27,1.61-20.89,4.84-4.46,2.55-8.3,6.23-11.54,11.03-1.52,2.25-4.46,3.15-6.99,2.05l-4.43-1.91c-3.19-1.38-4.36-5.26-2.35-8.03,2.93-4.04,6.11-7.5,9.54-10.39,4.89-4.12,10.38-7.21,16.47-9.27,6.09-2.06,12.82-3.09,20.2-3.09,12.36,0,22.6,2.42,30.72,7.26,8.12,4.84,14.2,12.09,18.26,21.77,4.06,9.67,6.09,21.86,6.09,36.55v69.85c0,3-2.5,5.43-5.59,5.43h-4.42c-2.93,0-5.37-2.2-5.58-5.04l-1.01-17.02c-4.25,6.99-9.87,12.41-16.88,16.26-7.01,3.85-15.13,5.78-24.35,5.78ZM930.26,245.49c8.86,0,16.47-1.75,22.83-5.24,6.36-3.49,11.21-8.64,14.53-15.45,3.32-6.81,4.98-15.23,4.98-25.26v-7.52h-39.02c-13.28,0-22.83,2.38-28.64,7.12-5.81,4.75-8.72,11.42-8.72,20.02s3,14.69,8.99,19.35c5.99,4.66,14.34,6.99,25.05,6.99Z"/>
        <path class="e" d="M1076.65,260.27c-12.73,0-22.69-3.28-29.89-9.85-7.2-6.57-10.79-15.88-10.79-27.94v-85.59h-19.04c-3.09,0-5.59-2.44-5.59-5.46v-3.94c0-3.01,2.5-5.46,5.59-5.46h19.04v-36.66c0-3.01,2.5-5.46,5.59-5.46h5.42c3.09,0,5.59,2.44,5.59,5.46v36.66h38.41c3.09,0,5.59,2.44,5.59,5.46v3.94c0,3.01-2.5,5.46-5.59,5.46h-38.41v85.59c0,7.2,2.12,12.82,6.36,16.87,4.24,4.05,10.15,6.07,17.71,6.07,2.21,0,4.38-.31,6.5-.94,1.12-.33,2.52-.96,4.18-1.87,2.82-1.55,6.4-.47,7.8,2.38l1.92,3.89c1.33,2.69.17,5.91-2.56,7.26-2.89,1.42-5.42,2.39-7.6,2.93-3.32.81-6.74,1.22-10.24,1.22Z"/>
        <path class="e" d="M1128.4,254.48V73.38c0-3.06,2.5-5.55,5.59-5.55h5.42c3.09,0,5.59,2.48,5.59,5.55v70.51c4.61-7.87,10.7-13.91,18.26-18.12,7.56-4.21,16.42-6.31,26.57-6.31,10.7,0,20.16,2.15,28.37,6.45,8.21,4.3,14.67,11.12,19.37,20.46,4.7,9.34,6.96,21.69,6.78,37.07v71.06c0,3.06-2.5,5.55-5.59,5.55h-5.42c-3.09,0-5.59-2.48-5.59-5.55v-64.74c0-15.19-1.8-26.72-5.4-34.6-3.6-7.87-8.49-13.22-14.67-16.06-6.18-2.84-13.14-4.26-20.89-4.26-13.1,0-23.34,4.81-30.72,14.42-7.38,9.61-11.07,23.02-11.07,40.23v65.02c0,3.06-2.5,5.55-5.59,5.55h-5.42c-3.09,0-5.59-2.48-5.59-5.55Z"/>
        <path class="e" d="M1295.55,254.59v-114.44h-20.7c-3.09,0-5.59-2.44-5.59-5.44v-3.93c0-3.01,2.5-5.44,5.59-5.44h20.7v-16.16c0-13.83,3.23-24.11,9.69-30.85,6.46-6.74,16.23-10.1,29.33-10.1,2.95,0,6.46.54,10.52,1.62,2.62.7,5.5,1.61,8.66,2.76,2.99,1.08,4.43,4.4,3.16,7.25l-1.7,3.83c-1.17,2.63-4.24,3.94-7.01,2.97s-5.07-1.69-7.13-2.27c-3.23-.9-5.86-1.35-7.89-1.35-7.01,0-12.27,2.16-15.77,6.47-3.51,4.31-5.26,10.87-5.26,19.67v16.16h36.75c3.09,0,5.59,2.44,5.59,5.44v3.93c0,3.01-2.5,5.44-5.59,5.44h-36.75v114.44c0,3.01-2.5,5.44-5.59,5.44h-5.42c-3.09,0-5.59-2.44-5.59-5.44Z"/>
        <path class="e" d="M1391.02,87.05c-2.95,0-5.54-1.1-7.75-3.3-2.21-2.2-3.32-4.76-3.32-7.69,0-3.11,1.11-5.72,3.32-7.83,2.21-2.1,4.8-3.16,7.75-3.16,3.13,0,5.76,1.06,7.89,3.16,2.12,2.11,3.18,4.72,3.18,7.83,0,2.93-1.06,5.49-3.18,7.69-2.12,2.2-4.75,3.3-7.89,3.3ZM1382.44,254.48v-126.19c0-3.06,2.5-5.55,5.59-5.55h5.42c3.09,0,5.59,2.48,5.59,5.55v126.19c0,3.06-2.5,5.55-5.59,5.55h-5.42c-3.09,0-5.59-2.48-5.59-5.55Z"/>
        <path class="e" d="M1442.21,254.48v-126.19c0-3.06,2.5-5.55,5.59-5.55h4.52c3.01,0,5.47,2.36,5.59,5.34l.62,16.08c4.61-8.05,10.7-14.18,18.26-18.4,7.56-4.21,16.51-6.31,26.84-6.31s20.16,2.15,28.37,6.45c8.21,4.3,14.67,11.12,19.37,20.46,4.7,9.34,6.96,21.69,6.78,37.07v71.06c0,3.06-2.5,5.55-5.59,5.55h-5.42c-3.09,0-5.59-2.48-5.59-5.55v-64.74c0-15.19-1.8-26.72-5.4-34.6-3.6-7.87-8.49-13.22-14.67-16.06-6.18-2.84-13.14-4.26-20.89-4.26-13.1,0-23.34,4.81-30.72,14.42-7.38,9.61-11.07,23.02-11.07,40.23v65.02c0,3.06-2.5,5.55-5.59,5.55h-5.42c-3.09,0-5.59-2.48-5.59-5.55Z"/>
        <path class="e" d="M1649.77,260.43c-12.18,0-22.97-3.02-32.38-9.06-9.41-6.04-16.79-14.42-22.14-25.16-5.35-10.73-8.03-22.95-8.03-36.65s2.67-26.14,8.03-36.79c5.35-10.64,12.73-18.98,22.14-25.02,9.41-6.04,20.2-9.06,32.38-9.06,10.52,0,19.97,2.48,28.37,7.44,8.39,4.96,15.17,11.77,20.34,20.42v-73.25c0-3.02,2.5-5.47,5.59-5.47h5.42c3.09,0,5.59,2.45,5.59,5.47v181.67c0,3.02-2.5,5.47-5.59,5.47h-4.77c-3.02,0-5.49-2.34-5.59-5.29l-.65-22.58c-5.17,8.66-11.95,15.46-20.34,20.42-8.4,4.96-17.85,7.44-28.37,7.44ZM1653.09,245.82c8.86,0,16.69-2.39,23.52-7.17,6.82-4.78,12.18-11.4,16.05-19.88,3.87-8.47,5.81-18.12,5.81-28.94v-.27c0-11-1.94-20.73-5.81-29.21-3.87-8.47-9.23-15.1-16.05-19.88-6.83-4.78-14.76-7.17-23.8-7.17-9.59,0-18.08,2.39-25.46,7.17-7.38,4.78-13.14,11.41-17.3,19.88-4.15,8.48-6.23,18.22-6.23,29.21s2.12,20.74,6.36,29.21c4.24,8.48,10.05,15.11,17.44,19.88,7.38,4.78,15.87,7.17,25.46,7.17Z"/>
        <path class="e" d="M1816.36,260.27c-13.28,0-25.05-3-35.29-9-10.24-6-18.26-14.28-24.08-24.86-5.81-10.57-8.72-22.75-8.72-36.55s2.86-25.97,8.58-36.55c5.72-10.57,13.6-18.85,23.66-24.86,10.05-6,21.54-9,34.45-9s24.21,3.09,33.35,9.27c9.13,6.18,16.09,14.69,20.89,25.53,4.8,10.84,7.2,23.34,7.2,37.49h-111.8c.92,17.02,6.04,30.23,15.36,39.64,9.31,9.41,21.45,14.11,36.39,14.11,10.7,0,19.79-2.55,27.26-7.66,5.96-4.07,10.89-9.09,14.8-15.04,1.66-2.53,5.07-3.33,7.7-1.75l4.34,2.61c2.64,1.59,3.44,4.96,1.8,7.51-3.04,4.72-6.68,9-10.92,12.85-5.63,5.11-12.22,9.09-19.79,11.96-7.57,2.86-15.96,4.3-25.18,4.3ZM1766.27,176.96h92.15c-.55-8.6-2.68-16.08-6.36-22.44-3.69-6.36-8.67-11.33-14.94-14.91-6.27-3.58-13.66-5.37-22.14-5.37s-16.05,1.79-23.25,5.37c-7.19,3.59-13.05,8.6-17.57,15.05-4.52,6.45-7.15,13.89-7.89,22.3Z"/>
        <path class="e" d="M1906.86,254.48v-126.19c0-3.06,2.5-5.55,5.59-5.55h5.42c3.09,0,5.59,2.48,5.59,5.55v18.61c5.35-8.6,12.45-14.87,21.31-18.81,6.99-3.11,14.21-4.99,21.66-5.64,3.24-.28,6.01,2.31,6.01,5.54v3.97c0,2.9-2.26,5.3-5.18,5.53-6.27.48-12.34,1.83-18.21,4.06-7.47,2.84-13.61,7.6-18.4,14.28-4.8,6.68-7.19,15.79-7.19,27.32v71.33c0,3.06-2.5,5.55-5.59,5.55h-5.42c-3.09,0-5.59-2.48-5.59-5.55Z"/>
      </g>
    </g>
  </g>
</svg>