<?xml version="1.0" encoding="UTF-8"?>
<svg id="a" data-name="Capa 2" xmlns="http://www.w3.org/2000/svg" xmlns:xlink="http://www.w3.org/1999/xlink" viewBox="0 0 1752.13 310.08">
  <defs>
    <style>
      .d {
        fill: url(#c);
      }

      .e {
        fill: #b0ceff;
      }
    </style>
    <linearGradient id="c" data-name="Degradado sin nombre 47" x1="211.75" y1="10.82" x2="98.07" y2="299.42" gradientUnits="userSpaceOnUse">
      <stop offset="0" stop-color="#a6cbff"/>
      <stop offset="1" stop-color="#2b4d7d"/>
    </linearGradient>
  </defs>
  <g id="b" data-name="Capa 1">
    <g>
      <path class="e" d="M407.9,225.54l57.2-145.64c1.51-3.83,5.19-6.35,9.3-6.35h20.82c4.1,0,7.79,2.52,9.3,6.35l57.2,145.64c2.59,6.58-2.25,13.71-9.3,13.71h-12.68c-4.12,0-7.82-2.54-9.31-6.39l-11.67-30.06h-67.91l-11.67,30.07c-1.5,3.85-5.19,6.39-9.31,6.39h-12.68c-7.05,0-11.88-7.13-9.3-13.71ZM461.46,174.15h46.69l-23.34-60.13-23.34,60.13Z"/>
      <path class="e" d="M586.9,229.22V83.58c0-5.54,4.47-10.03,9.99-10.03h12.32c5.52,0,9.99,4.49,9.99,10.03v145.64c0,5.54-4.47,10.03-9.99,10.03h-12.32c-5.52,0-9.99-4.49-9.99-10.03Z"/>
      <path class="e" d="M690.67,233.8V77.84c0-2.64,2.16-4.78,4.82-4.78h46.42c10.49,0,19.78,2.17,27.88,6.5,8.1,4.34,14.42,10.37,18.95,18.09,4.53,7.73,6.79,16.63,6.79,26.72s-2.03,18.76-6.08,26.48c-4.05,7.73-9.61,13.8-16.68,18.21-7.07,4.42-15.22,6.62-24.43,6.62h-42.42v58.12c0,2.64-2.16,4.78-4.82,4.78h-5.62c-2.66,0-4.82-2.14-4.82-4.78ZM705.93,161.73h42.42c9.37,0,17.08-3.47,23.12-10.4,6.04-6.93,9.06-15.92,9.06-26.96s-3.62-20.25-10.84-27.19c-7.23-6.93-16.49-10.4-27.76-10.4h-35.99v74.96Z"/>
      <path class="e" d="M855.59,238.78c-13.98,0-24.9-3.12-32.77-9.37-7.86-6.25-11.8-14.93-11.8-26.04s3.93-20.29,11.8-26.61c7.87-6.32,18.79-9.49,32.77-9.49h35.27c-.64-12.34-3.57-21.6-8.82-27.77-5.24-6.17-13.27-9.26-24.07-9.26-7.15,0-13.15,1.39-17.99,4.17-3.84,2.2-7.15,5.36-9.94,9.5-1.31,1.94-3.84,2.71-6.02,1.77l-3.82-1.65c-2.75-1.19-3.75-4.53-2.02-6.91,2.52-3.48,5.26-6.46,8.22-8.95,4.21-3.55,8.94-6.21,14.18-7.98,5.24-1.77,11.04-2.66,17.4-2.66,10.64,0,19.46,2.08,26.45,6.25,6.99,4.17,12.23,10.41,15.73,18.75,3.49,8.33,5.24,18.82,5.24,31.47v60.15c0,2.58-2.16,4.68-4.82,4.68h-3.81c-2.53,0-4.62-1.9-4.8-4.34l-.87-14.66c-3.66,6.02-8.5,10.69-14.54,14-6.04,3.32-13.03,4.98-20.97,4.98ZM854.64,226.05c7.63,0,14.18-1.5,19.66-4.51,5.48-3.01,9.65-7.44,12.51-13.31,2.86-5.86,4.29-13.11,4.29-21.75v-6.48h-33.6c-11.44,0-19.66,2.05-24.67,6.13-5,4.09-7.51,9.84-7.51,17.24s2.58,12.65,7.75,16.66c5.16,4.01,12.35,6.02,21.57,6.02Z"/>
      <path class="e" d="M980.71,238.78c-10.96,0-19.54-2.83-25.74-8.49-6.2-5.66-9.29-13.68-9.29-24.06v-73.7h-16.39c-2.66,0-4.82-2.1-4.82-4.7v-3.39c0-2.6,2.16-4.7,4.82-4.7h16.39v-31.57c0-2.6,2.16-4.7,4.82-4.7h4.67c2.66,0,4.82,2.1,4.82,4.7v31.57h33.08c2.66,0,4.82,2.1,4.82,4.7v3.39c0,2.6-2.16,4.7-4.82,4.7h-33.08v73.7c0,6.2,1.82,11.04,5.48,14.53,3.65,3.49,8.74,5.23,15.25,5.23,1.91,0,3.77-.27,5.6-.81.97-.29,2.17-.82,3.6-1.61,2.43-1.33,5.51-.4,6.72,2.05l1.65,3.35c1.14,2.32.15,5.09-2.21,6.25-2.49,1.22-4.67,2.06-6.54,2.52-2.86.7-5.8,1.05-8.82,1.05Z"/>
      <path class="e" d="M1025.27,233.8V77.84c0-2.64,2.16-4.78,4.82-4.78h4.67c2.66,0,4.82,2.14,4.82,4.78v60.72c3.97-6.78,9.21-11.98,15.73-15.61,6.51-3.62,14.14-5.44,22.88-5.44,9.21,0,17.36,1.85,24.43,5.56,7.07,3.71,12.63,9.58,16.68,17.62s6,18.68,5.84,31.92v61.19c0,2.64-2.16,4.78-4.82,4.78h-4.67c-2.66,0-4.82-2.14-4.82-4.78v-55.75c0-13.08-1.55-23.01-4.65-29.79-3.1-6.78-7.31-11.39-12.63-13.83-5.32-2.44-11.32-3.66-17.99-3.66-11.28,0-20.1,4.14-26.45,12.41-6.36,8.28-9.53,19.83-9.53,34.64v55.99c0,2.64-2.16,4.78-4.82,4.78h-4.67c-2.66,0-4.82-2.14-4.82-4.78Z"/>
      <path class="e" d="M1169.21,233.89v-98.55h-17.82c-2.66,0-4.82-2.1-4.82-4.69v-3.38c0-2.59,2.16-4.69,4.82-4.69h17.82v-13.92c0-11.91,2.78-20.76,8.34-26.56,5.56-5.8,13.98-8.7,25.26-8.7,2.54,0,5.56.46,9.06,1.39,2.25.6,4.74,1.39,7.46,2.38,2.58.93,3.81,3.79,2.73,6.25l-1.46,3.3c-1,2.27-3.65,3.39-6.04,2.56-2.32-.81-4.37-1.46-6.14-1.95-2.78-.77-5.05-1.16-6.79-1.16-6.04,0-10.57,1.86-13.58,5.57-3.02,3.71-4.53,9.36-4.53,16.94v13.92h31.65c2.66,0,4.82,2.1,4.82,4.69v3.38c0,2.59-2.16,4.69-4.82,4.69h-31.65v98.55c0,2.59-2.16,4.69-4.82,4.69h-4.67c-2.66,0-4.82-2.1-4.82-4.69Z"/>
      <path class="e" d="M1251.43,89.61c-2.54,0-4.77-.95-6.67-2.84-1.91-1.89-2.86-4.1-2.86-6.62,0-2.68.95-4.92,2.86-6.74,1.91-1.81,4.13-2.72,6.67-2.72,2.7,0,4.96.91,6.79,2.72,1.82,1.81,2.74,4.06,2.74,6.74,0,2.52-.92,4.73-2.74,6.62-1.83,1.89-4.09,2.84-6.79,2.84ZM1244.04,233.8v-108.67c0-2.64,2.16-4.78,4.82-4.78h4.67c2.66,0,4.82,2.14,4.82,4.78v108.67c0,2.64-2.16,4.78-4.82,4.78h-4.67c-2.66,0-4.82-2.14-4.82-4.78Z"/>
      <path class="e" d="M1295.51,233.8v-108.67c0-2.64,2.16-4.78,4.82-4.78h3.89c2.59,0,4.71,2.03,4.81,4.6l.54,13.85c3.97-6.93,9.21-12.21,15.73-15.84,6.51-3.62,14.22-5.44,23.12-5.44s17.36,1.85,24.43,5.56c7.07,3.71,12.63,9.58,16.68,17.62,4.05,8.04,6,18.68,5.84,31.92v61.19c0,2.64-2.16,4.78-4.82,4.78h-4.67c-2.66,0-4.82-2.14-4.82-4.78v-55.75c0-13.08-1.55-23.01-4.65-29.79-3.1-6.78-7.31-11.39-12.63-13.83-5.32-2.44-11.32-3.66-17.99-3.66-11.28,0-20.1,4.14-26.45,12.41-6.36,8.28-9.53,19.83-9.53,34.64v55.99c0,2.64-2.16,4.78-4.82,4.78h-4.67c-2.66,0-4.82-2.14-4.82-4.78Z"/>
      <path class="e" d="M1474.25,238.91c-10.49,0-19.78-2.6-27.88-7.8-8.1-5.2-14.46-12.42-19.07-21.66-4.61-9.24-6.91-19.76-6.91-31.56s2.3-22.51,6.91-31.68c4.61-9.16,10.96-16.34,19.07-21.55,8.1-5.2,17.4-7.8,27.88-7.8,9.06,0,17.2,2.14,24.43,6.41,7.23,4.27,13.07,10.13,17.52,17.59v-63.08c0-2.6,2.16-4.71,4.82-4.71h4.67c2.66,0,4.82,2.11,4.82,4.71v156.45c0,2.6-2.16,4.71-4.82,4.71h-4.11c-2.6,0-4.73-2.01-4.81-4.55l-.56-19.45c-4.45,7.45-10.29,13.32-17.52,17.59-7.23,4.27-15.37,6.41-24.43,6.41ZM1477.11,226.34c7.63,0,14.38-2.06,20.26-6.17,5.88-4.11,10.49-9.82,13.82-17.12,3.34-7.3,5-15.61,5-24.92v-.23c0-9.47-1.67-17.86-5-25.16-3.34-7.3-7.95-13-13.82-17.12-5.88-4.11-12.71-6.17-20.5-6.17-8.26,0-15.57,2.06-21.93,6.17-6.36,4.12-11.32,9.82-14.89,17.12-3.58,7.3-5.36,15.69-5.36,25.16s1.82,17.86,5.48,25.16c3.65,7.3,8.66,13.01,15.01,17.12,6.35,4.12,13.66,6.17,21.93,6.17Z"/>
      <path class="e" d="M1617.71,238.78c-11.44,0-21.57-2.59-30.39-7.75-8.82-5.17-15.73-12.3-20.73-21.41-5.01-9.1-7.51-19.59-7.51-31.47s2.46-22.37,7.39-31.47c4.92-9.1,11.72-16.24,20.38-21.41,8.66-5.17,18.55-7.75,29.67-7.75s20.85,2.66,28.72,7.98c7.86,5.32,13.86,12.65,17.99,21.99,4.13,9.34,6.2,20.1,6.2,32.28h-96.28c.79,14.66,5.2,26.03,13.23,34.13,8.02,8.1,18.47,12.15,31.34,12.15,9.21,0,17.04-2.2,23.47-6.6,5.13-3.51,9.38-7.82,12.74-12.95,1.43-2.18,4.37-2.87,6.63-1.51l3.74,2.25c2.27,1.37,2.96,4.27,1.55,6.47-2.62,4.06-5.75,7.75-9.4,11.07-4.85,4.4-10.53,7.83-17.04,10.3-6.52,2.47-13.74,3.7-21.69,3.7ZM1574.58,167.04h79.36c-.48-7.41-2.3-13.85-5.48-19.32-3.18-5.47-7.47-9.76-12.87-12.84-5.4-3.08-11.76-4.63-19.07-4.63s-13.82,1.54-20.02,4.63c-6.2,3.09-11.24,7.41-15.13,12.96-3.9,5.55-6.16,11.96-6.79,19.21Z"/>
      <path class="e" d="M1695.64,233.8v-108.67c0-2.64,2.16-4.78,4.82-4.78h4.67c2.66,0,4.82,2.14,4.82,4.78v16.03c4.61-7.41,10.72-12.81,18.35-16.2,6.02-2.67,12.24-4.29,18.66-4.86,2.79-.25,5.18,1.99,5.18,4.77v3.42c0,2.5-1.95,4.57-4.46,4.76-5.4.41-10.62,1.58-15.68,3.5-6.43,2.45-11.72,6.54-15.85,12.3-4.13,5.76-6.2,13.6-6.2,23.53v61.43c0,2.64-2.16,4.78-4.82,4.78h-4.67c-2.66,0-4.82-2.14-4.82-4.78Z"/>
      <path class="d" d="M131.26,191.49c-14.17,10.19-26.85,22.62-37.43,37.05-.74-50.54-33.57-88.58-78.47-106.17-6.83-2.68-10.12-10.47-7.43-17.3l5.73-14.55c2.69-6.83,10.39-10.25,17.23-7.6,48.71,18.88,87.77,57.45,100.36,108.57ZM278.92,227.31c6.84,2.65,14.54-.77,17.23-7.6l5.73-14.55c2.69-6.83-.6-14.63-7.43-17.3-44.9-17.59-77.73-55.63-78.47-106.17-10.58,14.43-23.26,26.86-37.43,37.05,12.59,51.12,51.65,89.69,100.36,108.57ZM82.71,279.13c-2.65,6.84.77,14.54,7.6,17.23l14.55,5.73c6.83,2.69,14.63-.6,17.3-7.43,17.59-44.9,55.63-77.73,106.17-78.47-14.43-10.58-26.86-23.26-37.05-37.43-51.12,12.59-89.69,51.65-108.57,100.36ZM227.11,31.1c2.65-6.84-.77-14.54-7.6-17.23l-14.55-5.73c-6.83-2.69-14.63.6-17.3,7.43-17.59,44.9-55.63,77.73-106.17,78.47,14.43,10.58,26.86,23.26,37.05,37.43,51.12-12.59,89.69-51.65,108.57-100.36ZM20.87,140.67c-6.3-3.23-12.59-6.47-18.89-9.7-9.89,59.15,18.22,120.3,65.38,151.81l6.51-19.94c-37.7-28.11-58.25-75.43-53-122.17ZM262.82,236.25c-28.16,37.73-75.58,58.29-122.38,52.94-3.23,6.29-6.46,12.59-9.69,18.88,59.22,10.01,120.52-18.14,152.06-65.38-6.66-2.15-13.33-4.29-19.99-6.44ZM242.48,27.14c-2.14,6.67-4.27,13.33-6.41,20,37.86,28.14,58.48,75.66,53.12,122.54,6.29,3.26,12.57,6.51,18.86,9.77,1.27-7.95,1.92-16.1,1.92-24.41,0-53.12-26.74-100-67.49-127.9ZM27.17,67.55c6.65,2.16,13.3,4.33,19.95,6.49,28.1-37.81,75.52-58.45,122.35-53.16l9.76-18.88C119.97-7.97,58.67,20.23,27.17,67.55Z"/>
    </g>
  </g>
</svg>