<?xml version="1.0" encoding="UTF-8"?>
<svg id="a" data-name="Capa 3" xmlns="http://www.w3.org/2000/svg" xmlns:xlink="http://www.w3.org/1999/xlink" viewBox="0 0 328.66 328.66">
  <defs>
    <style>
      .d {
        fill: url(#c);
      }
    </style>
    <linearGradient id="c" data-name="Degradado sin nombre 68" x1="164.33" y1="328.66" x2="164.33" y2="0" gradientUnits="userSpaceOnUse">
      <stop offset="0" stop-color="#334d79"/>
      <stop offset="1" stop-color="#aeccfd"/>
    </linearGradient>
  </defs>
  <g id="b" data-name="Capa 1">
    <path class="d" d="M155.14,209.38c-10.01,15.55-17.68,32.73-22.51,51.06-20.36-49.54-67.49-74.29-118.59-74.19-7.78.01-14.04-6.39-14.04-14.17v-16.58c0-7.77,6.26-14.14,14.03-14.18,55.35-.3,108.84,22.55,141.11,68.06ZM314.63,187.35c7.77-.04,14.03-6.41,14.03-14.18v-16.58c0-7.78-6.27-14.19-14.04-14.17-51.1.09-98.23-24.66-118.59-74.19-4.83,18.33-12.5,35.51-22.51,51.06,32.27,45.51,85.75,68.36,141.11,68.06ZM141.31,314.63c.04,7.77,6.41,14.03,14.18,14.03h16.58c7.78,0,14.19-6.27,14.17-14.04-.09-51.1,24.66-98.23,74.19-118.59-18.33-4.83-35.51-12.5-51.06-22.51-45.51,32.27-68.36,85.75-68.06,141.11ZM187.35,14.03C187.3,6.26,180.94,0,173.17,0h-16.58c-7.78,0-14.19,6.27-14.17,14.04.09,51.1-24.66,98.23-74.19,118.59,18.33,4.83,35.51,12.5,51.06,22.51,45.51-32.27,68.36-85.75,68.06-141.11Z"/>
  </g>
</svg>