<?xml version="1.0" encoding="UTF-8"?>
<svg id="a" data-name="Capa 2" xmlns="http://www.w3.org/2000/svg" xmlns:xlink="http://www.w3.org/1999/xlink" viewBox="0 0 309.97 310.08">
  <defs>
    <style>
      .d {
        fill: url(#c);
      }
    </style>
    <linearGradient id="c" data-name="Degradado sin nombre 47" x1="211.75" y1="10.82" x2="98.07" y2="299.42" gradientUnits="userSpaceOnUse">
      <stop offset="0" stop-color="#a6cbff"/>
      <stop offset="1" stop-color="#2b4d7d"/>
    </linearGradient>
  </defs>
  <g id="b" data-name="Capa 1">
    <path class="d" d="M131.26,191.49c-14.17,10.19-26.85,22.62-37.43,37.05-.74-50.54-33.57-88.58-78.47-106.17-6.83-2.68-10.12-10.47-7.43-17.3l5.73-14.55c2.69-6.83,10.39-10.25,17.23-7.6,48.71,18.88,87.77,57.45,100.36,108.57ZM278.92,227.31c6.84,2.65,14.54-.77,17.23-7.6l5.73-14.55c2.69-6.83-.6-14.63-7.43-17.3-44.9-17.59-77.73-55.63-78.47-106.17-10.58,14.43-23.26,26.86-37.43,37.05,12.59,51.12,51.65,89.69,100.36,108.57ZM82.71,279.13c-2.65,6.84.77,14.54,7.6,17.23l14.55,5.73c6.83,2.69,14.63-.6,17.3-7.43,17.59-44.9,55.63-77.73,106.17-78.47-14.43-10.58-26.86-23.26-37.05-37.43-51.12,12.59-89.69,51.65-108.57,100.36ZM227.11,31.1c2.65-6.84-.77-14.54-7.6-17.23l-14.55-5.73c-6.83-2.69-14.63.6-17.3,7.43-17.59,44.9-55.63,77.73-106.17,78.47,14.43,10.58,26.86,23.26,37.05,37.43,51.12-12.59,89.69-51.65,108.57-100.36ZM20.87,140.67c-6.3-3.23-12.59-6.47-18.89-9.7-9.89,59.15,18.22,120.3,65.38,151.81l6.51-19.94c-37.7-28.11-58.25-75.43-53-122.17ZM262.82,236.25c-28.16,37.73-75.58,58.29-122.38,52.94-3.23,6.29-6.46,12.59-9.69,18.88,59.22,10.01,120.52-18.14,152.06-65.38-6.66-2.15-13.33-4.29-19.99-6.44ZM242.48,27.14c-2.14,6.67-4.27,13.33-6.41,20,37.86,28.14,58.48,75.66,53.12,122.54,6.29,3.26,12.57,6.51,18.86,9.77,1.27-7.95,1.92-16.1,1.92-24.41,0-53.12-26.74-100-67.49-127.9ZM27.17,67.55c6.65,2.16,13.3,4.33,19.95,6.49,28.1-37.81,75.52-58.45,122.35-53.16l9.76-18.88C119.97-7.97,58.67,20.23,27.17,67.55Z"/>
  </g>
</svg>