<?xml version="1.0" encoding="UTF-8"?>
<svg id="b" data-name="Capa 2" xmlns="http://www.w3.org/2000/svg" viewBox="0 0 619.53 623.67">
  <defs>
    <style>
      .d {
        fill: #d9d9d9;
      }
    </style>
  </defs>
  <g id="c" data-name="Layer 1">
    <path class="d" d="M619.53,422.43v181.88c0,10.69-8.67,19.36-19.36,19.36h-96.2c-10.69,0-19.36-8.67-19.36-19.36v-176.27c0-26.3,7.71-115.23-68.72-115.23-59.29,0-71.31,60.87-73.73,88.19v203.31c0,10.69-8.66,19.36-19.36,19.36h-93.04c-10.69,0-19.36-8.67-19.36-19.36V225.12c0-10.69,8.67-19.36,19.36-19.36h93.04c10.69,0,19.36,8.67,19.36,19.36v32.79c21.99-32.99,54.66-58.46,124.22-58.46,154.03,0,153.15,143.91,153.15,222.98Z"/>
    <path class="d" d="M151.04,226.82v375.79c0,11.63-9.42,21.06-21.06,21.06H40.34c-11.63,0-21.06-9.43-21.06-21.06V226.82c0-11.63,9.43-21.06,21.06-21.06h89.64c11.64,0,21.06,9.43,21.06,21.06Z"/>
    <path class="d" d="M170.33,85.17c0,47.03-38.13,85.16-85.17,85.16S0,132.2,0,85.17,38.13,0,85.16,0s85.17,38.13,85.17,85.17Z"/>
  </g>
</svg>