<?xml version="1.0" encoding="UTF-8"?>
<svg id="b" data-name="Capa 2" xmlns="http://www.w3.org/2000/svg" viewBox="0 0 541.57 61.39">
  <defs>
    <style>
      .d {
        fill: #ddd;
      }
    </style>
  </defs>
  <g id="c" data-name="Capa 2">
    <path class="d" d="M156.05,12.3c-1.74-2.99-4.25-5.33-7.54-7.01-3.26-1.69-7.25-2.53-11.91-2.53h-24.26v58.63h13.01v-19.02h10.92c4.73,0,8.74-.82,12.07-2.48,3.33-1.67,5.88-3.98,7.65-6.95,1.77-3,2.65-6.42,2.65-10.32s-.86-7.33-2.59-10.32ZM144.02,27.73c-.82,1.49-2.03,2.63-3.66,3.47-1.63.82-3.7,1.24-6.21,1.24h-8.81V12.89h8.76c2.53,0,4.61.41,6.25,1.22,1.64.79,2.85,1.93,3.67,3.39.82,1.48,1.21,3.17,1.21,5.12s-.4,3.62-1.21,5.11Z"/>
    <path class="d" d="M203.14,24.15h.01c-1.05-1.86-2.53-3.45-4.33-4.62-1.85-1.22-3.94-2.1-6.28-2.66-2.37-.58-4.81-.87-7.36-.87-3.71,0-6.93.53-9.71,1.59-2.8,1.07-5.07,2.57-6.85,4.52-1.75,1.97-2.93,4.26-3.52,6.94l11.82.91c.43-1.45,1.34-2.66,2.7-3.63,1.36-.95,3.19-1.43,5.5-1.43,2.17,0,3.86.49,5.04,1.49,1.18,1,1.79,2.4,1.79,4.2v.18c0,.94-.36,1.63-1.11,2.11-.74.47-1.93.84-3.58,1.07-1.64.24-3.8.49-6.48.75-2.27.21-4.46.58-6.52,1.08-2.08.52-3.92,1.27-5.53,2.3-1.63,1.01-2.91,2.34-3.85,4-.94,1.66-1.41,3.72-1.41,6.16,0,2.9.67,5.33,2,7.27,1.32,1.93,3.14,3.39,5.44,4.37,2.3,1,4.92,1.49,7.86,1.49,2.27,0,4.29-.3,6.03-.86,1.74-.6,3.23-1.41,4.47-2.45,1.24-1.04,2.23-2.24,2.96-3.62h.36v6.09h12.13v-29.65c0-2.61-.53-4.87-1.58-6.73ZM192.05,44.83h-.02c0,1.54-.42,2.93-1.22,4.14-.82,1.23-1.96,2.2-3.4,2.92-1.44.71-3.1,1.07-4.97,1.07s-3.59-.43-4.86-1.3c-1.26-.87-1.9-2.12-1.9-3.78,0-1.15.32-2.11.94-2.88.62-.78,1.48-1.39,2.61-1.83,1.12-.47,2.43-.8,3.93-1,.7-.1,1.48-.2,2.35-.33.86-.12,1.71-.26,2.58-.44.86-.16,1.62-.34,2.33-.53.69-.2,1.22-.44,1.63-.68v4.64Z"/>
    <path class="d" d="M240.04,60.22c-.63.18-1.54.42-2.69.66-1.17.26-2.58.42-4.24.48-3.08.1-5.79-.29-8.09-1.19-2.32-.89-4.11-2.28-5.39-4.17-1.26-1.88-1.91-4.27-1.89-7.16v-22.9h-6.31v-9.16h6.31V6.25h12.8v10.53h8.65v9.16h-8.65v21.3c0,1.14.17,2.01.53,2.63.35.61.86,1.05,1.51,1.3.63.25,1.4.38,2.27.38.58,0,1.17-.06,1.78-.16.6-.1,1.06-.19,1.38-.25h.02l2.01,9.08Z"/>
    <path class="d" d="M291.17,33.37v28h-12.8v-25.82c.02-2.7-.69-4.81-2.14-6.31-1.46-1.51-3.47-2.27-6.08-2.27-1.74,0-3.28.36-4.61,1.07-1.34.69-2.38,1.73-3.12,3.07-.75,1.35-1.16,2.97-1.16,4.86v25.42h-12.79V2.76h12.43v22.42h.53c1.04-2.61,2.71-4.63,5.05-6.12,2.31-1.49,5.21-2.22,8.73-2.22,3.19,0,6,.66,8.39,1.99,2.38,1.32,4.25,3.22,5.58,5.7v-.02h.01c1.34,2.47,2.01,5.42,1.98,8.86Z"/>
    <path class="d" d="M316.84,17.4h9.19v9.16h-9.19v34.8h-12.75V26.56h-6.51v-9.16h6.51v-3.19c0-3.18.66-5.83,1.96-7.92,1.31-2.1,3.12-3.67,5.4-4.73,2.28-1.04,4.87-1.56,7.76-1.56,1.96,0,3.76.13,5.39.44,1.63.27,2.84.53,3.65.76l-2.28,9.16c-.5-.15-1.13-.3-1.84-.43-.74-.13-1.49-.2-2.25-.2-1.88,0-3.19.42-3.94,1.24-.74.84-1.1,2-1.1,3.48v2.95Z"/>
    <path class="d" d="M399.32,33.37v28h-12.79v-25.82c0-2.69-.7-4.8-2.16-6.31-1.46-1.52-3.48-2.29-6.02-2.29-1.72,0-3.25.36-4.56,1.07-1.31.7-2.33,1.74-3.05,3.08-.74,1.34-1.12,2.96-1.12,4.86v25.41h-12.79V17.4h12.18v7.76h.53c1.03-2.56,2.74-4.58,5.15-6.08,2.39-1.49,5.31-2.24,8.72-2.24,3.21,0,6,.66,8.37,2.01,2.38,1.33,4.23,3.22,5.55,5.69,1.33,2.47,1.99,5.4,1.99,8.83Z"/>
    <path class="d" d="M439.84,2.04v22.04h-.39c-.56-1.19-1.38-2.39-2.45-3.63-1.08-1.23-2.48-2.25-4.2-3.08-1.73-.84-3.89-1.25-6.47-1.25-3.39,0-6.5.83-9.32,2.51-2.84,1.68-5.1,4.18-6.8,7.53-1.7,3.35-2.55,7.54-2.55,12.58s.82,9.05,2.46,12.42c1.65,3.36,3.89,5.91,6.73,7.63,2.84,1.73,6.01,2.58,9.49,2.58,2.48,0,4.58-.39,6.31-1.17,1.75-.78,3.14-1.76,4.24-2.96,1.09-1.2,1.94-2.4,2.55-3.63h.53v7.04h12.6V2.04h-12.73ZM438.95,45.52c-.77,1.95-1.88,3.45-3.3,4.54-1.44,1.07-3.19,1.62-5.25,1.62s-3.87-.55-5.3-1.65c-1.42-1.1-2.52-2.62-3.27-4.58-.74-1.97-1.12-4.22-1.12-6.78s.36-4.77,1.11-6.69c.75-1.93,1.84-3.44,3.28-4.52,1.44-1.09,3.21-1.62,5.32-1.62s3.8.52,5.24,1.56c1.44,1.06,2.55,2.54,3.32,4.47.74,1.92,1.12,4.19,1.12,6.8,0,3.93-.38,4.9-1.15,6.85Z"/>
    <path class="d" d="M505.24,41.65v-3.35c0-3.75-.53-7.01-1.64-9.8-1.11-2.8-2.66-5.13-4.62-6.98-1.98-1.85-4.33-3.27-6.9-4.16-2.63-.93-5.45-1.4-8.51-1.4-4.52,0-8.45.95-11.81,2.86-3.3,1.86-5.99,4.64-7.79,7.97-1.85,3.43-2.75,7.4-2.75,11.91s.9,8.66,2.75,12.04c1.84,3.39,4.46,6.01,7.88,7.84,3.41,1.84,7.49,2.76,12.24,2.76,3.8,0,7.16-.55,10.06-1.67,2.92-1.12,5.3-2.68,7.15-4.7,1.85-2.01,3.07-4.38,3.68-7.08l-11.83-.74c-.43,1.12-1.08,2.04-1.91,2.81-.85.76-1.86,1.34-3.03,1.72-1.19.37-2.48.57-3.9.57-2.15,0-3.99-.43-5.55-1.28-1.57-.85-2.76-2.08-3.62-3.66-.85-1.59-1.26-3.47-1.26-5.63v-.03h31.36ZM473.87,34.11c.06-1.58.5-3.02,1.27-4.34.83-1.42,2.01-2.56,3.51-3.41,1.49-.85,3.21-1.27,5.14-1.27s3.51.37,4.91,1.15c1.41.78,2.52,1.84,3.31,3.2.81,1.36,1.2,2.92,1.2,4.67h-19.34Z"/>
    <path class="d" d="M541.57,17.21v10.83c-.6-.16-1.43-.32-2.48-.45-1.06-.15-2.05-.2-2.92-.2-1.89,0-3.56.37-5.03,1.15-1.47.77-2.64,1.84-3.49,3.21-.85,1.37-1.28,2.96-1.28,4.75v24.89h-12.78V17.42h12.39v7.67h.49c.84-2.72,2.25-4.78,4.22-6.2,1.99-1.4,4.27-2.1,6.86-2.1.63,0,1.32.03,2.06.11h.01c.75.07,1.4.18,1.95.31Z"/>
    <rect class="d" x="66.54" y="2.75" width="12.99" height="58.62"/>
    <path class="d" d="M37.97,2.75h-16.75L0,61.37h13.92l4.56-13.36h22.2l4.55,13.36h13.93L37.97,2.75ZM21.78,38.34l7.56-22.2h.48l7.55,22.2h-15.59Z"/>
    <path class="d" d="M346.57,8.72c0,2.21-1.2,4.25-3.13,5.3l-.47.26c-1.82,1-4.01,1-5.81,0l-.48-.26c-1.92-1.07-3.12-3.09-3.12-5.3s1.2-4.25,3.12-5.31l.48-.26c1.82-.99,4.01-.99,5.81,0l.47.26c1.93,1.07,3.13,3.1,3.13,5.31Z"/>
    <rect class="d" x="333.84" y="17.4" width="12.77" height="43.97"/>
  </g>
</svg>